# xmcd CD database file
#
# Track frame offsets:
#	183
#	29358
#	68808
#	90258
#	148008
#	163308
#	224883
#
# Disc length: 3564 seconds
#
# Revision: 0
# Processed by: cddbd v1.5.2PL0 Copyright (c) Steve Scherf et al.
# Submitted via: CDex 1.70beta2
#
DISCID=670dea07
DTITLE=If Six Was Nine - La Musica Di Jimi Hendrix Per Jazz Ensemble
DYEAR=1900
DGENRE=Jazz
TTITLE0=IF SIX WAS NINE 
TTITLE1=LITTLE WING
TTITLE2=CASTLES MADE OF SAND
TTITLE3=ANGEL
TTITLE4=DRIFTIN` 
TTITLE5=THIRD STONE FROM THE SUN
TTITLE6=A PURPLE LADY IN VOODOO
EXTD=
EXTT0=
EXTT1=
EXTT2=
EXTT3=
EXTT4=
EXTT5=
EXTT6=
PLAYORDER=
